<mxfile host="app.diagrams.net" modified="2024-01-13T07:23:31.573Z" agent="Mozilla/5.0 (Windows NT 10.0; Win64; x64) AppleWebKit/537.36 (KHTML, like Gecko) Chrome/120.0.0.0 Safari/537.36 Edg/120.0.0.0" etag="QBdQwR03J6DG-Qhfdksn" version="22.1.18" type="github">
  <diagram name="第 1 页" id="n0l9_IGRnVCK7IY2CVSV">
    <mxGraphModel dx="1039" dy="413" grid="1" gridSize="10" guides="1" tooltips="1" connect="1" arrows="1" fold="1" page="1" pageScale="1" pageWidth="827" pageHeight="1169" math="0" shadow="0">
      <root>
        <mxCell id="0" />
        <mxCell id="1" parent="0" />
        <mxCell id="gVyBX--V2GTejoInPmbf-10" value="" style="shape=image;html=1;verticalAlign=top;verticalLabelPosition=bottom;labelBackgroundColor=#ffffff;imageAspect=0;aspect=fixed;image=https://cdn2.iconfinder.com/data/icons/whcompare-servers-web-hosting/50/cloud-web-hosting-128.png" vertex="1" parent="1">
          <mxGeometry x="350" y="60" width="128" height="128" as="geometry" />
        </mxCell>
        <mxCell id="gVyBX--V2GTejoInPmbf-11" value="" style="image;points=[];aspect=fixed;html=1;align=center;shadow=0;dashed=0;image=img/lib/allied_telesis/computer_and_terminals/Server_Desktop.svg;" vertex="1" parent="1">
          <mxGeometry x="100" y="250" width="47.33" height="60" as="geometry" />
        </mxCell>
        <mxCell id="gVyBX--V2GTejoInPmbf-12" value="" style="image;points=[];aspect=fixed;html=1;align=center;shadow=0;dashed=0;image=img/lib/allied_telesis/computer_and_terminals/Server_Desktop.svg;" vertex="1" parent="1">
          <mxGeometry x="530" y="250" width="47.33" height="60" as="geometry" />
        </mxCell>
        <mxCell id="gVyBX--V2GTejoInPmbf-13" value="" style="image;points=[];aspect=fixed;html=1;align=center;shadow=0;dashed=0;image=img/lib/allied_telesis/computer_and_terminals/Server_Desktop.svg;" vertex="1" parent="1">
          <mxGeometry x="240" y="250" width="47.33" height="60" as="geometry" />
        </mxCell>
        <mxCell id="gVyBX--V2GTejoInPmbf-14" value="" style="image;points=[];aspect=fixed;html=1;align=center;shadow=0;dashed=0;image=img/lib/allied_telesis/computer_and_terminals/Server_Desktop.svg;" vertex="1" parent="1">
          <mxGeometry x="710" y="250" width="47.33" height="60" as="geometry" />
        </mxCell>
        <mxCell id="gVyBX--V2GTejoInPmbf-15" value="" style="endArrow=none;dashed=1;html=1;dashPattern=1 3;strokeWidth=2;rounded=0;" edge="1" parent="1">
          <mxGeometry width="50" height="50" relative="1" as="geometry">
            <mxPoint x="390" y="584" as="sourcePoint" />
            <mxPoint x="470" y="584" as="targetPoint" />
          </mxGeometry>
        </mxCell>
        <mxCell id="gVyBX--V2GTejoInPmbf-16" value="&lt;b&gt;&lt;font face=&quot;Times New Roman&quot; style=&quot;font-size: 16px;&quot;&gt;Scheduler&lt;/font&gt;&lt;/b&gt;" style="rounded=1;whiteSpace=wrap;html=1;dashed=1;dashPattern=8 8;" vertex="1" parent="1">
          <mxGeometry x="100" y="360" width="660" height="60" as="geometry" />
        </mxCell>
        <mxCell id="gVyBX--V2GTejoInPmbf-19" value="" style="sketch=0;outlineConnect=0;fontColor=#232F3E;gradientColor=none;fillColor=#232F3D;strokeColor=none;dashed=0;verticalLabelPosition=bottom;verticalAlign=top;align=center;html=1;fontSize=12;fontStyle=0;aspect=fixed;pointerEvents=1;shape=mxgraph.aws4.user;" vertex="1" parent="1">
          <mxGeometry x="104.66" y="566" width="38" height="38" as="geometry" />
        </mxCell>
        <mxCell id="gVyBX--V2GTejoInPmbf-20" value="" style="sketch=0;outlineConnect=0;fontColor=#232F3E;gradientColor=none;fillColor=#232F3D;strokeColor=none;dashed=0;verticalLabelPosition=bottom;verticalAlign=top;align=center;html=1;fontSize=12;fontStyle=0;aspect=fixed;pointerEvents=1;shape=mxgraph.aws4.user;" vertex="1" parent="1">
          <mxGeometry x="244.66" y="566" width="38" height="38" as="geometry" />
        </mxCell>
        <mxCell id="gVyBX--V2GTejoInPmbf-22" value="" style="sketch=0;outlineConnect=0;fontColor=#232F3E;gradientColor=none;fillColor=#232F3D;strokeColor=none;dashed=0;verticalLabelPosition=bottom;verticalAlign=top;align=center;html=1;fontSize=12;fontStyle=0;aspect=fixed;pointerEvents=1;shape=mxgraph.aws4.user;" vertex="1" parent="1">
          <mxGeometry x="534.67" y="566" width="38" height="38" as="geometry" />
        </mxCell>
        <mxCell id="gVyBX--V2GTejoInPmbf-23" value="" style="sketch=0;outlineConnect=0;fontColor=#232F3E;gradientColor=none;fillColor=#232F3D;strokeColor=none;dashed=0;verticalLabelPosition=bottom;verticalAlign=top;align=center;html=1;fontSize=12;fontStyle=0;aspect=fixed;pointerEvents=1;shape=mxgraph.aws4.user;" vertex="1" parent="1">
          <mxGeometry x="714.67" y="566" width="38" height="38" as="geometry" />
        </mxCell>
        <mxCell id="gVyBX--V2GTejoInPmbf-24" value="" style="endArrow=none;dashed=1;html=1;dashPattern=1 3;strokeWidth=2;rounded=0;" edge="1" parent="1">
          <mxGeometry width="50" height="50" relative="1" as="geometry">
            <mxPoint x="384" y="289.8" as="sourcePoint" />
            <mxPoint x="464" y="289.8" as="targetPoint" />
          </mxGeometry>
        </mxCell>
        <mxCell id="gVyBX--V2GTejoInPmbf-25" value="" style="endArrow=classic;html=1;rounded=0;entryX=0.096;entryY=1.063;entryDx=0;entryDy=0;entryPerimeter=0;" edge="1" parent="1" source="gVyBX--V2GTejoInPmbf-19" target="gVyBX--V2GTejoInPmbf-16">
          <mxGeometry width="50" height="50" relative="1" as="geometry">
            <mxPoint x="120" y="566" as="sourcePoint" />
            <mxPoint x="170" y="516" as="targetPoint" />
          </mxGeometry>
        </mxCell>
        <mxCell id="gVyBX--V2GTejoInPmbf-26" value="" style="endArrow=classic;html=1;rounded=0;entryX=0.096;entryY=1.063;entryDx=0;entryDy=0;entryPerimeter=0;" edge="1" parent="1" source="gVyBX--V2GTejoInPmbf-20">
          <mxGeometry width="50" height="50" relative="1" as="geometry">
            <mxPoint x="260" y="562" as="sourcePoint" />
            <mxPoint x="295" y="420" as="targetPoint" />
          </mxGeometry>
        </mxCell>
        <mxCell id="gVyBX--V2GTejoInPmbf-27" value="" style="endArrow=classic;html=1;rounded=0;entryX=0.096;entryY=1.063;entryDx=0;entryDy=0;entryPerimeter=0;" edge="1" parent="1" source="gVyBX--V2GTejoInPmbf-22">
          <mxGeometry width="50" height="50" relative="1" as="geometry">
            <mxPoint x="490" y="562" as="sourcePoint" />
            <mxPoint x="525" y="420" as="targetPoint" />
          </mxGeometry>
        </mxCell>
        <mxCell id="gVyBX--V2GTejoInPmbf-28" value="" style="endArrow=classic;html=1;rounded=0;entryX=0.096;entryY=1.063;entryDx=0;entryDy=0;entryPerimeter=0;" edge="1" parent="1" source="gVyBX--V2GTejoInPmbf-23">
          <mxGeometry width="50" height="50" relative="1" as="geometry">
            <mxPoint x="670" y="566" as="sourcePoint" />
            <mxPoint x="705" y="424" as="targetPoint" />
          </mxGeometry>
        </mxCell>
        <mxCell id="gVyBX--V2GTejoInPmbf-29" value="&lt;font face=&quot;Times New Roman&quot;&gt;R&lt;sub&gt;1&lt;/sub&gt;&lt;/font&gt;" style="text;strokeColor=none;align=center;fillColor=none;html=1;verticalAlign=middle;whiteSpace=wrap;rounded=0;rotation=-75;" vertex="1" parent="1">
          <mxGeometry x="100" y="510" width="50" height="20" as="geometry" />
        </mxCell>
        <mxCell id="gVyBX--V2GTejoInPmbf-30" value="&lt;span style=&quot;color: rgb(0, 0, 0); font-family: &amp;quot;Times New Roman&amp;quot;; font-size: 12px; font-style: normal; font-variant-ligatures: normal; font-variant-caps: normal; font-weight: 400; letter-spacing: normal; orphans: 2; text-align: center; text-indent: 0px; text-transform: none; widows: 2; word-spacing: 0px; -webkit-text-stroke-width: 0px; background-color: rgb(251, 251, 251); text-decoration-thickness: initial; text-decoration-style: initial; text-decoration-color: initial; float: none; display: inline !important;&quot;&gt;R&lt;/span&gt;&lt;sub style=&quot;border-color: var(--border-color); color: rgb(0, 0, 0); font-family: &amp;quot;Times New Roman&amp;quot;; font-style: normal; font-variant-ligatures: normal; font-variant-caps: normal; font-weight: 400; letter-spacing: normal; orphans: 2; text-align: center; text-indent: 0px; text-transform: none; widows: 2; word-spacing: 0px; -webkit-text-stroke-width: 0px; background-color: rgb(251, 251, 251); text-decoration-thickness: initial; text-decoration-style: initial; text-decoration-color: initial;&quot;&gt;2&lt;/sub&gt;" style="text;whiteSpace=wrap;html=1;rotation=-75;" vertex="1" parent="1">
          <mxGeometry x="238.67000000000002" y="499.99999999999994" width="50" height="20" as="geometry" />
        </mxCell>
        <mxCell id="gVyBX--V2GTejoInPmbf-31" value="&lt;span style=&quot;color: rgb(0, 0, 0); font-family: &amp;quot;Times New Roman&amp;quot;; font-size: 12px; font-style: normal; font-variant-ligatures: normal; font-variant-caps: normal; font-weight: 400; letter-spacing: normal; orphans: 2; text-align: center; text-indent: 0px; text-transform: none; widows: 2; word-spacing: 0px; -webkit-text-stroke-width: 0px; background-color: rgb(251, 251, 251); text-decoration-thickness: initial; text-decoration-style: initial; text-decoration-color: initial; float: none; display: inline !important;&quot;&gt;R&lt;/span&gt;&lt;span style=&quot;color: rgb(0, 0, 0); font-family: &amp;quot;Times New Roman&amp;quot;; font-style: normal; font-variant-ligatures: normal; font-variant-caps: normal; font-weight: 400; letter-spacing: normal; orphans: 2; text-align: center; text-indent: 0px; text-transform: none; widows: 2; word-spacing: 0px; -webkit-text-stroke-width: 0px; background-color: rgb(251, 251, 251); text-decoration-thickness: initial; text-decoration-style: initial; text-decoration-color: initial; float: none; display: inline !important; font-size: 10px;&quot;&gt;n-1&lt;/span&gt;" style="text;whiteSpace=wrap;html=1;rotation=80;" vertex="1" parent="1">
          <mxGeometry x="534.6700000000001" y="500" width="50" height="20" as="geometry" />
        </mxCell>
        <mxCell id="gVyBX--V2GTejoInPmbf-32" value="&lt;span style=&quot;color: rgb(0, 0, 0); font-family: &amp;quot;Times New Roman&amp;quot;; font-size: 12px; font-style: normal; font-variant-ligatures: normal; font-variant-caps: normal; font-weight: 400; letter-spacing: normal; orphans: 2; text-align: center; text-indent: 0px; text-transform: none; widows: 2; word-spacing: 0px; -webkit-text-stroke-width: 0px; background-color: rgb(251, 251, 251); text-decoration-thickness: initial; text-decoration-style: initial; text-decoration-color: initial; float: none; display: inline !important;&quot;&gt;R&lt;/span&gt;&lt;span style=&quot;color: rgb(0, 0, 0); font-family: &amp;quot;Times New Roman&amp;quot;; font-style: normal; font-variant-ligatures: normal; font-variant-caps: normal; font-weight: 400; letter-spacing: normal; orphans: 2; text-align: center; text-indent: 0px; text-transform: none; widows: 2; word-spacing: 0px; -webkit-text-stroke-width: 0px; background-color: rgb(251, 251, 251); text-decoration-thickness: initial; text-decoration-style: initial; text-decoration-color: initial; float: none; display: inline !important; font-size: 10px;&quot;&gt;n&lt;/span&gt;" style="text;whiteSpace=wrap;html=1;rotation=80;" vertex="1" parent="1">
          <mxGeometry x="710.0000000000001" y="500" width="50" height="20" as="geometry" />
        </mxCell>
        <mxCell id="gVyBX--V2GTejoInPmbf-33" value="" style="endArrow=classic;html=1;rounded=0;entryX=0.396;entryY=1.021;entryDx=0;entryDy=0;entryPerimeter=0;" edge="1" parent="1" target="gVyBX--V2GTejoInPmbf-11">
          <mxGeometry width="50" height="50" relative="1" as="geometry">
            <mxPoint x="400" y="360" as="sourcePoint" />
            <mxPoint x="420" y="310" as="targetPoint" />
          </mxGeometry>
        </mxCell>
        <mxCell id="gVyBX--V2GTejoInPmbf-34" value="" style="endArrow=classic;html=1;rounded=0;entryX=0.365;entryY=1.009;entryDx=0;entryDy=0;entryPerimeter=0;" edge="1" parent="1" target="gVyBX--V2GTejoInPmbf-13">
          <mxGeometry width="50" height="50" relative="1" as="geometry">
            <mxPoint x="405" y="360" as="sourcePoint" />
            <mxPoint x="455" y="310" as="targetPoint" />
          </mxGeometry>
        </mxCell>
        <mxCell id="gVyBX--V2GTejoInPmbf-35" value="" style="endArrow=classic;html=1;rounded=0;" edge="1" parent="1" target="gVyBX--V2GTejoInPmbf-10">
          <mxGeometry width="50" height="50" relative="1" as="geometry">
            <mxPoint x="405" y="360" as="sourcePoint" />
            <mxPoint x="455" y="310" as="targetPoint" />
          </mxGeometry>
        </mxCell>
        <mxCell id="gVyBX--V2GTejoInPmbf-36" value="" style="endArrow=classic;html=1;rounded=0;entryX=0.216;entryY=0.997;entryDx=0;entryDy=0;entryPerimeter=0;" edge="1" parent="1" target="gVyBX--V2GTejoInPmbf-14">
          <mxGeometry width="50" height="50" relative="1" as="geometry">
            <mxPoint x="405" y="360" as="sourcePoint" />
            <mxPoint x="455" y="310" as="targetPoint" />
          </mxGeometry>
        </mxCell>
        <mxCell id="gVyBX--V2GTejoInPmbf-37" value="&lt;font face=&quot;Times New Roman&quot;&gt;R&lt;sub&gt;1&lt;/sub&gt;&lt;/font&gt;" style="text;strokeColor=none;align=center;fillColor=none;html=1;verticalAlign=middle;whiteSpace=wrap;rounded=0;rotation=10;" vertex="1" parent="1">
          <mxGeometry x="170" y="300" width="50" height="20" as="geometry" />
        </mxCell>
        <mxCell id="gVyBX--V2GTejoInPmbf-39" value="&lt;span style=&quot;color: rgb(0, 0, 0); font-family: &amp;quot;Times New Roman&amp;quot;; font-size: 12px; font-style: normal; font-variant-ligatures: normal; font-variant-caps: normal; font-weight: 400; letter-spacing: normal; orphans: 2; text-align: center; text-indent: 0px; text-transform: none; widows: 2; word-spacing: 0px; -webkit-text-stroke-width: 0px; background-color: rgb(251, 251, 251); text-decoration-thickness: initial; text-decoration-style: initial; text-decoration-color: initial; float: none; display: inline !important;&quot;&gt;R&lt;/span&gt;&lt;sub style=&quot;border-color: var(--border-color); color: rgb(0, 0, 0); font-family: &amp;quot;Times New Roman&amp;quot;; font-style: normal; font-variant-ligatures: normal; font-variant-caps: normal; font-weight: 400; letter-spacing: normal; orphans: 2; text-align: center; text-indent: 0px; text-transform: none; widows: 2; word-spacing: 0px; -webkit-text-stroke-width: 0px; background-color: rgb(251, 251, 251); text-decoration-thickness: initial; text-decoration-style: initial; text-decoration-color: initial;&quot;&gt;2&lt;/sub&gt;" style="text;whiteSpace=wrap;html=1;rotation=25;" vertex="1" parent="1">
          <mxGeometry x="310" y="309.99999999999994" width="50" height="20" as="geometry" />
        </mxCell>
        <mxCell id="gVyBX--V2GTejoInPmbf-40" value="&lt;span style=&quot;color: rgb(0, 0, 0); font-family: &amp;quot;Times New Roman&amp;quot;; font-size: 12px; font-style: normal; font-variant-ligatures: normal; font-variant-caps: normal; font-weight: 400; letter-spacing: normal; orphans: 2; text-align: center; text-indent: 0px; text-transform: none; widows: 2; word-spacing: 0px; -webkit-text-stroke-width: 0px; background-color: rgb(251, 251, 251); text-decoration-thickness: initial; text-decoration-style: initial; text-decoration-color: initial; float: none; display: inline !important;&quot;&gt;R&lt;/span&gt;&lt;span style=&quot;color: rgb(0, 0, 0); font-family: &amp;quot;Times New Roman&amp;quot;; font-style: normal; font-variant-ligatures: normal; font-variant-caps: normal; font-weight: 400; letter-spacing: normal; orphans: 2; text-align: center; text-indent: 0px; text-transform: none; widows: 2; word-spacing: 0px; -webkit-text-stroke-width: 0px; background-color: rgb(251, 251, 251); text-decoration-thickness: initial; text-decoration-style: initial; text-decoration-color: initial; float: none; display: inline !important; font-size: 10px;&quot;&gt;n-1&lt;/span&gt;" style="text;whiteSpace=wrap;html=1;rotation=90;" vertex="1" parent="1">
          <mxGeometry x="400.0000000000001" y="320" width="50" height="20" as="geometry" />
        </mxCell>
        <mxCell id="gVyBX--V2GTejoInPmbf-41" value="&lt;span style=&quot;color: rgb(0, 0, 0); font-family: &amp;quot;Times New Roman&amp;quot;; font-size: 12px; font-style: normal; font-variant-ligatures: normal; font-variant-caps: normal; font-weight: 400; letter-spacing: normal; orphans: 2; text-align: center; text-indent: 0px; text-transform: none; widows: 2; word-spacing: 0px; -webkit-text-stroke-width: 0px; background-color: rgb(251, 251, 251); text-decoration-thickness: initial; text-decoration-style: initial; text-decoration-color: initial; float: none; display: inline !important;&quot;&gt;R&lt;/span&gt;&lt;span style=&quot;color: rgb(0, 0, 0); font-family: &amp;quot;Times New Roman&amp;quot;; font-style: normal; font-variant-ligatures: normal; font-variant-caps: normal; font-weight: 400; letter-spacing: normal; orphans: 2; text-align: center; text-indent: 0px; text-transform: none; widows: 2; word-spacing: 0px; -webkit-text-stroke-width: 0px; background-color: rgb(251, 251, 251); text-decoration-thickness: initial; text-decoration-style: initial; text-decoration-color: initial; float: none; display: inline !important; font-size: 10px;&quot;&gt;n&lt;/span&gt;" style="text;whiteSpace=wrap;html=1;rotation=-10;" vertex="1" parent="1">
          <mxGeometry x="600.0000000000001" y="300" width="50" height="20" as="geometry" />
        </mxCell>
      </root>
    </mxGraphModel>
  </diagram>
</mxfile>
